<svg width="512" height="512" viewBox="0 0 512 512" fill="none" xmlns="http://www.w3.org/2000/svg">
<g clip-path="url(#clip0_8_2)">
<path d="M1 289C1 267.646 1 246.292 1.35476 224.776C2.13605 223.769 2.7673 222.968 2.95828 222.073C5.63404 209.531 7.68903 196.826 11.0105 184.46C16.0875 165.558 23.9231 147.729 33.6294 130.669C42.6278 114.854 52.6765 99.7273 65.1971 86.6359C76.7567 74.5494 89.1363 63.0812 102.18 52.6185C122.225 36.5393 144.776 24.5582 169.055 15.931C186.729 9.65065 204.676 4.59239 223.448 2.89425C224.017 2.84269 224.485 1.65696 225 1C246.021 1 267.042 1 288.225 1.35555C289.232 2.13711 290.035 2.79888 290.927 2.95248C299.427 4.41728 308.072 5.26017 316.427 7.30281C338.891 12.7955 360.383 20.9128 380.655 32.2076C407.134 46.9614 430.266 65.6797 450.216 88.5587C465.975 106.631 478.841 126.407 489.065 148.055C500.473 172.21 507.898 197.448 511.082 223.962C511.171 224.708 512.336 225.324 513 226C513 246.021 513 266.042 512.632 286.248C511.855 287.113 511.199 287.75 511.072 288.479C509.336 298.418 508.144 308.478 505.901 318.298C500.097 343.705 490.002 367.55 476.485 389.69C462.76 412.173 446.12 432.425 425.951 449.713C412.009 461.663 397.323 472.446 381.256 481.243C352.441 497.02 321.898 507.64 289.051 511.083C288.308 511.161 287.681 512.336 287 513C266.979 513 246.958 513 226.804 512.662C225.831 511.887 225.029 511.184 224.144 511.056C218.809 510.28 213.379 509.996 208.121 508.886C185.025 504.008 162.41 497.291 141.66 485.972C127.151 478.057 113.458 468.568 99.7765 459.232C83.9774 448.45 70.7734 434.626 58.7668 419.957C44.7502 402.831 32.9143 384.205 23.7932 363.8C13.3596 340.457 5.83175 316.468 2.91772 291.049C2.83217 290.302 1.6636 289.68 1 289ZM275.592 272.066C292.64 262.188 309.689 252.31 326.972 242.297C319.385 229.099 312.116 216.456 304.697 203.551C265.208 226.317 226.111 248.856 186.822 271.505C194.477 284.753 201.846 297.507 209.331 310.462C231.537 297.592 253.246 285.01 275.592 272.066ZM213.711 359.213C220.838 350.767 221.79 342.527 216.328 333.025C201.081 306.497 185.781 279.999 170.367 253.567C164.129 242.872 151.802 239.553 141.486 245.443C131.428 251.186 128.087 263.859 134.197 274.526C149.489 301.22 164.852 327.876 180.403 354.42C187.771 366.997 202 369.117 213.711 359.213ZM382.037 245.587C381.606 244.331 381.365 242.967 380.716 241.836C364.648 213.864 348.744 185.794 332.321 158.031C326.499 148.189 313.749 145.765 304.203 151.533C294.739 157.25 291.101 169.559 296.72 179.452C312.24 206.779 327.985 233.981 343.886 261.089C349.283 270.289 359.462 273.555 368.978 269.971C378.649 266.329 383.84 257.044 382.037 245.587ZM395.772 203.712C386.769 188.151 377.887 172.519 368.728 157.052C361.065 144.112 344.804 142.168 335.482 152.964C352.408 182.289 369.359 211.656 386.268 240.951C394.763 239.272 400.59 233.106 402.13 224.886C403.618 216.943 400.014 210.645 395.772 203.712ZM177.278 362.558C177.171 361.272 177.477 359.747 176.895 358.734C161.706 332.34 146.424 306 131.162 279.648C129.856 277.392 128.578 275.121 127.343 272.955C113.389 276.574 107.38 291.28 114.594 304.038C124.504 321.564 134.603 338.985 144.759 356.37C152.021 368.801 164.713 371.378 177.278 362.558ZM141.418 361.371C130.978 343.07 120.587 324.739 109.95 306.552C109.421 305.646 106.451 305.287 105.136 305.861C94.4342 310.533 90.0687 323.778 95.7535 334.527C99.7867 342.152 104.109 349.637 108.581 357.016C115.915 369.118 130.146 371.24 141.418 361.371ZM418.802 198.09C421.203 192.48 421.915 186.628 419.003 181.187C414.145 172.109 409.249 162.976 403.438 154.504C395.995 143.654 379.483 143.669 372.321 152.779C383.244 171.7 394.175 190.633 405.064 209.495C411.441 207.529 415.668 204.035 418.802 198.09Z" fill="#FF700D"/>
<path d="M275.274 272.247C253.246 285.01 231.537 297.592 209.331 310.462C201.846 297.507 194.477 284.753 186.822 271.505C226.111 248.856 265.208 226.317 304.697 203.551C312.116 216.456 319.385 229.099 326.972 242.297C309.689 252.31 292.64 262.188 275.274 272.247Z" fill="#FFFEFD"/>
<path d="M213.455 359.469C202 369.117 187.771 366.997 180.403 354.42C164.852 327.876 149.489 301.22 134.197 274.526C128.087 263.859 131.428 251.186 141.486 245.443C151.802 239.553 164.129 242.872 170.367 253.567C185.781 279.999 201.081 306.497 216.328 333.025C221.79 342.527 220.838 350.767 213.455 359.469Z" fill="#FFFEFD"/>
<path d="M382.101 245.985C383.84 257.044 378.649 266.329 368.978 269.971C359.462 273.555 349.283 270.289 343.886 261.089C327.985 233.981 312.24 206.779 296.72 179.452C291.101 169.559 294.739 157.25 304.203 151.533C313.749 145.765 326.499 148.189 332.321 158.031C348.744 185.794 364.648 213.864 380.716 241.836C381.365 242.967 381.606 244.331 382.101 245.985Z" fill="#FFFEFD"/>
<path d="M395.935 204.04C400.014 210.645 403.618 216.943 402.13 224.886C400.59 233.106 394.763 239.272 386.268 240.951C369.359 211.656 352.408 182.289 335.482 152.964C344.804 142.168 361.065 144.112 368.728 157.052C377.887 172.519 386.769 188.151 395.935 204.04Z" fill="#FFFEFC"/>
<path d="M177.006 362.82C164.713 371.378 152.021 368.801 144.759 356.37C134.603 338.985 124.504 321.564 114.594 304.038C107.38 291.28 113.389 276.574 127.343 272.955C128.578 275.121 129.856 277.392 131.162 279.648C146.424 306 161.706 332.34 176.895 358.734C177.477 359.747 177.171 361.272 177.006 362.82Z" fill="#FFFDFC"/>
<path d="M141.224 361.708C130.146 371.24 115.915 369.118 108.581 357.016C104.109 349.637 99.7867 342.152 95.7535 334.527C90.0687 323.778 94.4342 310.533 105.136 305.861C106.451 305.287 109.421 305.646 109.95 306.552C120.587 324.739 130.978 343.07 141.224 361.708Z" fill="#FFFDFC"/>
<path d="M418.612 198.421C415.668 204.035 411.441 207.529 405.064 209.495C394.175 190.633 383.244 171.7 372.321 152.779C379.483 143.669 395.995 143.654 403.438 154.504C409.249 162.976 414.145 172.109 419.003 181.187C421.915 186.628 421.203 192.48 418.612 198.421Z" fill="#FFFDFC"/>
</g>
<defs>
<clipPath id="clip0_8_2">
<rect width="512" height="512" fill="white"/>
</clipPath>
</defs>
</svg>
